<svg xmlns="http://www.w3.org/2000/svg" viewBox="0 0 132.02 132.62"><defs><style>.cls-1,.cls-2,.cls-4{fill:#bf8f98;}.cls-2{font-size:30.74px;}.cls-2,.cls-4{font-family:CoolveticaRg-Regular, Coolvetica;}.cls-3{letter-spacing:-0.05em;}.cls-4{font-size:8.45px;}.cls-5{letter-spacing:-0.01em;}.cls-6{letter-spacing:-0.03em;}.cls-7{fill:#f2ced5;}</style></defs><g id="Laag_2" data-name="Laag 2"><g id="Juiste_logo" data-name="Juiste logo"><path class="cls-1" d="M90.05,15.19V8.9H82.34V23.35L80,23.86V0H70.78V26.12H68.91V9.59H64.16V7H61.1V9.18H56.51V28.11l-1.65.51V12.8l-7.53,5.13V35.86h0l.11,34.36c-1.83-1.1-4-1.22-6.25-1.22-6.7,0-13.66,4.92-13.66,11.62s7,11.1,13.66,11.1c5.93,0,10.87-3.23,11.92-8.86v0a22.93,22.93,0,0,0,.5-7.28l.07-28.92,34.64-5V62.21c-1.77-1-3.81-1.07-6-1.07-6.7,0-13.67,4.92-13.67,11.62s7,11.1,13.67,11.1c3.26,0,6.22-.26,8.4-2.35,2.75-2.14,4.84-6.29,4-15.33l.13-30.32h.06V19.15Z"/><path class="cls-1" d="M70.78,25.71v.41H68.91V26Z"/><path class="cls-1" d="M54.86,29v1.17H51.11C52.35,29.75,53.6,29.37,54.86,29Z"/><text class="cls-2" transform="translate(0 113.35)">music<tspan class="cls-3" x="73.75" y="0"> </tspan><tspan x="79.63" y="0">city</tspan></text><path class="cls-1" d="M54.86,29v1.17H51.11C52.35,29.75,53.6,29.37,54.86,29Z"/><text class="cls-4" transform="translate(0.78 120.77)">in<tspan class="cls-5" x="5.88" y="0">s</tspan><tspan x="9.81" y="0">truments </tspan><tspan class="cls-6" x="45.32" y="0">f</tspan><tspan x="47.55" y="0">or inner city youth</tspan></text><polygon class="cls-1" points="47.33 31.55 47.33 31.55 47.33 33.31 47.33 31.55"/><rect class="cls-7" x="48.55" y="18.81" width="1.07" height="1.68"/><rect class="cls-7" x="58.06" y="12.53" width="1.07" height="1.68"/><rect class="cls-7" x="85.55" y="10.59" width="1.07" height="1.68"/><rect class="cls-7" x="72.75" y="1.58" width="1.07" height="1.68"/><rect class="cls-7" x="76.5" y="4.35" width="1.07" height="1.68"/><rect class="cls-7" x="76.5" y="7.97" width="1.07" height="1.68"/><rect class="cls-7" x="72.45" y="13.51" width="1.07" height="1.68"/><rect class="cls-7" x="76.5" y="18.91" width="1.07" height="1.68"/><rect class="cls-7" x="85.55" y="13.51" width="1.07" height="1.68"/><rect class="cls-7" x="85.55" y="18.91" width="1.07" height="1.68"/><rect class="cls-7" x="90.18" y="18.91" width="1.07" height="1.68"/><rect class="cls-7" x="64.55" y="15.53" width="1.07" height="1.68"/><rect class="cls-7" x="58.06" y="24.01" width="1.07" height="1.68"/><rect class="cls-7" x="66.78" y="18.35" width="1.07" height="1.68"/><rect class="cls-7" x="59.89" y="20.56" width="1.07" height="1.68"/><rect class="cls-7" x="48.55" y="25.4" width="1.07" height="1.68"/><rect class="cls-7" x="52.82" y="21.85" width="1.07" height="1.68"/><path class="cls-7" d="M73.29,67.27a10.87,10.87,0,0,1,4.41-2.82A8.6,8.6,0,0,1,80.78,64"/><path class="cls-7" d="M32.4,75.29a10.85,10.85,0,0,1,4.4-2.83A8.91,8.91,0,0,1,39.89,72"/></g></g></svg>